<svg width="512" height="512" xmlns="http://www.w3.org/2000/svg" version="1.1">
<circle cx="256" cy="256" r="251" stroke="black" fill="#d8f1ff" stroke-width="5" />
<line x1="486" y1="256" x2="506" y2="256" stroke="black" stroke-width="8" />
<line x1="484" y1="280" x2="504" y2="282" stroke="black" stroke-width="2" />
<line x1="480" y1="303" x2="500" y2="307" stroke="black" stroke-width="2" />
<line x1="474" y1="327" x2="493" y2="333" stroke="black" stroke-width="2" />
<line x1="466" y1="349" x2="484" y2="357" stroke="black" stroke-width="2" />
<line x1="455" y1="371" x2="472" y2="381" stroke="black" stroke-width="8" />
<line x1="442" y1="391" x2="458" y2="402" stroke="black" stroke-width="2" />
<line x1="426" y1="409" x2="441" y2="423" stroke="black" stroke-width="2" />
<line x1="409" y1="426" x2="423" y2="441" stroke="black" stroke-width="2" />
<line x1="391" y1="442" x2="402" y2="458" stroke="black" stroke-width="2" />
<line x1="371" y1="455" x2="381" y2="472" stroke="black" stroke-width="8" />
<line x1="349" y1="466" x2="357" y2="484" stroke="black" stroke-width="2" />
<line x1="327" y1="474" x2="333" y2="493" stroke="black" stroke-width="2" />
<line x1="303" y1="480" x2="307" y2="500" stroke="black" stroke-width="2" />
<line x1="280" y1="484" x2="282" y2="504" stroke="black" stroke-width="2" />
<line x1="256" y1="486" x2="256" y2="506" stroke="black" stroke-width="8" />
<line x1="231" y1="484" x2="229" y2="504" stroke="black" stroke-width="2" />
<line x1="208" y1="480" x2="204" y2="500" stroke="black" stroke-width="2" />
<line x1="184" y1="474" x2="178" y2="493" stroke="black" stroke-width="2" />
<line x1="162" y1="466" x2="154" y2="484" stroke="black" stroke-width="2" />
<line x1="141" y1="455" x2="131" y2="472" stroke="black" stroke-width="8" />
<line x1="120" y1="442" x2="109" y2="458" stroke="black" stroke-width="2" />
<line x1="102" y1="426" x2="88" y2="441" stroke="black" stroke-width="2" />
<line x1="85" y1="409" x2="70" y2="423" stroke="black" stroke-width="2" />
<line x1="69" y1="391" x2="53" y2="402" stroke="black" stroke-width="2" />
<line x1="56" y1="371" x2="39" y2="381" stroke="black" stroke-width="8" />
<line x1="45" y1="349" x2="27" y2="357" stroke="black" stroke-width="2" />
<line x1="37" y1="327" x2="18" y2="333" stroke="black" stroke-width="2" />
<line x1="31" y1="303" x2="11" y2="307" stroke="black" stroke-width="2" />
<line x1="27" y1="280" x2="7" y2="282" stroke="black" stroke-width="2" />
<line x1="26" y1="256" x2="6" y2="256" stroke="black" stroke-width="8" />
<line x1="27" y1="231" x2="7" y2="229" stroke="black" stroke-width="2" />
<line x1="31" y1="208" x2="11" y2="204" stroke="black" stroke-width="2" />
<line x1="37" y1="184" x2="18" y2="178" stroke="black" stroke-width="2" />
<line x1="45" y1="162" x2="27" y2="154" stroke="black" stroke-width="2" />
<line x1="56" y1="140" x2="39" y2="130" stroke="black" stroke-width="8" />
<line x1="69" y1="120" x2="53" y2="109" stroke="black" stroke-width="2" />
<line x1="85" y1="102" x2="70" y2="88" stroke="black" stroke-width="2" />
<line x1="102" y1="85" x2="88" y2="70" stroke="black" stroke-width="2" />
<line x1="120" y1="69" x2="109" y2="53" stroke="black" stroke-width="2" />
<line x1="140" y1="56" x2="130" y2="39" stroke="black" stroke-width="8" />
<line x1="162" y1="45" x2="154" y2="27" stroke="black" stroke-width="2" />
<line x1="184" y1="37" x2="178" y2="18" stroke="black" stroke-width="2" />
<line x1="208" y1="31" x2="204" y2="11" stroke="black" stroke-width="2" />
<line x1="231" y1="27" x2="229" y2="7" stroke="black" stroke-width="2" />
<line x1="255" y1="26" x2="255" y2="6" stroke="black" stroke-width="8" />
<line x1="280" y1="27" x2="282" y2="7" stroke="black" stroke-width="2" />
<line x1="303" y1="31" x2="307" y2="11" stroke="black" stroke-width="2" />
<line x1="327" y1="37" x2="333" y2="18" stroke="black" stroke-width="2" />
<line x1="349" y1="45" x2="357" y2="27" stroke="black" stroke-width="2" />
<line x1="371" y1="56" x2="381" y2="39" stroke="black" stroke-width="8" />
<line x1="391" y1="69" x2="402" y2="53" stroke="black" stroke-width="2" />
<line x1="409" y1="85" x2="423" y2="70" stroke="black" stroke-width="2" />
<line x1="426" y1="102" x2="441" y2="88" stroke="black" stroke-width="2" />
<line x1="442" y1="120" x2="458" y2="109" stroke="black" stroke-width="2" />
<line x1="455" y1="140" x2="472" y2="130" stroke="black" stroke-width="8" />
<line x1="466" y1="162" x2="484" y2="154" stroke="black" stroke-width="2" />
<line x1="474" y1="184" x2="493" y2="178" stroke="black" stroke-width="2" />
<line x1="480" y1="208" x2="500" y2="204" stroke="black" stroke-width="2" />
<line x1="484" y1="231" x2="504" y2="229" stroke="black" stroke-width="2" />
<line x1="256" y1="256" x2="149" y2="181" stroke="black" stroke-width="9" />
<line x1="256" y1="256" x2="441" y2="157" stroke="black" stroke-width="5" />
<line x1="256" y1="256" x2="301" y2="471" stroke="red" stroke-width="2" />
<circle cx="256" cy="256" r="5" stroke="black" fill="black" stroke-width="5" />
</svg>
